<mxfile host="app.diagrams.net" modified="2023-11-01T19:17:39.037Z" agent="Mozilla/5.0 (Windows NT 10.0; Win64; x64) AppleWebKit/537.36 (KHTML, like Gecko) Chrome/118.0.0.0 Safari/537.36" etag="6FbZjxbMxQQ0YEoX7ae7" version="22.0.8" type="device">
  <diagram id="kgpKYQtTHZ0yAKxKKP6v" name="Page-1">
    <mxGraphModel dx="880" dy="468" grid="1" gridSize="10" guides="1" tooltips="1" connect="1" arrows="1" fold="1" page="1" pageScale="1" pageWidth="850" pageHeight="1100" math="0" shadow="0">
      <root>
        <mxCell id="0" />
        <mxCell id="1" parent="0" />
        <mxCell id="3nuBFxr9cyL0pnOWT2aG-1" value="FuncionÃ¡rio" style="shape=umlLifeline;perimeter=lifelinePerimeter;container=1;collapsible=0;recursiveResize=0;rounded=0;shadow=0;strokeWidth=1;" parent="1" vertex="1">
          <mxGeometry x="120" y="80" width="100" height="380" as="geometry" />
        </mxCell>
        <mxCell id="3nuBFxr9cyL0pnOWT2aG-2" value="" style="points=[];perimeter=orthogonalPerimeter;rounded=0;shadow=0;strokeWidth=1;" parent="3nuBFxr9cyL0pnOWT2aG-1" vertex="1">
          <mxGeometry x="45" y="70" width="10" height="30" as="geometry" />
        </mxCell>
        <mxCell id="3nuBFxr9cyL0pnOWT2aG-5" value="Login" style="shape=umlLifeline;perimeter=lifelinePerimeter;container=1;collapsible=0;recursiveResize=0;rounded=0;shadow=0;strokeWidth=1;" parent="1" vertex="1">
          <mxGeometry x="300" y="80" width="100" height="380" as="geometry" />
        </mxCell>
        <mxCell id="3nuBFxr9cyL0pnOWT2aG-6" value="" style="points=[];perimeter=orthogonalPerimeter;rounded=0;shadow=0;strokeWidth=1;" parent="3nuBFxr9cyL0pnOWT2aG-5" vertex="1">
          <mxGeometry x="45" y="70" width="10" height="30" as="geometry" />
        </mxCell>
        <mxCell id="9aJRn0vA-EVMV_RJM1XB-21" value="" style="points=[];perimeter=orthogonalPerimeter;rounded=0;shadow=0;strokeWidth=1;" vertex="1" parent="3nuBFxr9cyL0pnOWT2aG-5">
          <mxGeometry x="45" y="190" width="10" height="30" as="geometry" />
        </mxCell>
        <mxCell id="3nuBFxr9cyL0pnOWT2aG-8" value="Informar Dados" style="verticalAlign=bottom;endArrow=block;shadow=0;strokeWidth=1;exitX=0.54;exitY=0.277;exitDx=0;exitDy=0;exitPerimeter=0;" parent="1" source="3nuBFxr9cyL0pnOWT2aG-1" target="3nuBFxr9cyL0pnOWT2aG-5" edge="1">
          <mxGeometry x="-0.0199" y="3" relative="1" as="geometry">
            <mxPoint x="275" y="160" as="sourcePoint" />
            <mxPoint as="offset" />
          </mxGeometry>
        </mxCell>
        <mxCell id="eMg0Yvc5_CJ2FcT8Yvff-1" value="Controle de &#xa;Login" style="shape=umlLifeline;perimeter=lifelinePerimeter;container=1;collapsible=0;recursiveResize=0;rounded=0;shadow=0;strokeWidth=1;" parent="1" vertex="1">
          <mxGeometry x="470" y="80" width="100" height="380" as="geometry" />
        </mxCell>
        <mxCell id="eMg0Yvc5_CJ2FcT8Yvff-2" value="" style="points=[];perimeter=orthogonalPerimeter;rounded=0;shadow=0;strokeWidth=1;" parent="eMg0Yvc5_CJ2FcT8Yvff-1" vertex="1">
          <mxGeometry x="45" y="70" width="10" height="40" as="geometry" />
        </mxCell>
        <mxCell id="9aJRn0vA-EVMV_RJM1XB-28" value="" style="points=[];perimeter=orthogonalPerimeter;rounded=0;shadow=0;strokeWidth=1;" vertex="1" parent="eMg0Yvc5_CJ2FcT8Yvff-1">
          <mxGeometry x="45" y="285" width="10" height="40" as="geometry" />
        </mxCell>
        <mxCell id="eMg0Yvc5_CJ2FcT8Yvff-3" value="Banco de Dados" style="shape=umlLifeline;perimeter=lifelinePerimeter;container=1;collapsible=0;recursiveResize=0;rounded=0;shadow=0;strokeWidth=1;" parent="1" vertex="1">
          <mxGeometry x="650" y="80" width="100" height="380" as="geometry" />
        </mxCell>
        <mxCell id="eMg0Yvc5_CJ2FcT8Yvff-4" value="" style="points=[];perimeter=orthogonalPerimeter;rounded=0;shadow=0;strokeWidth=1;" parent="eMg0Yvc5_CJ2FcT8Yvff-3" vertex="1">
          <mxGeometry x="45" y="70" width="10" height="40" as="geometry" />
        </mxCell>
        <mxCell id="9aJRn0vA-EVMV_RJM1XB-4" value="Consulta dados" style="verticalAlign=bottom;endArrow=block;shadow=0;strokeWidth=1;exitX=0.54;exitY=0.28;exitDx=0;exitDy=0;exitPerimeter=0;" edge="1" parent="eMg0Yvc5_CJ2FcT8Yvff-3">
          <mxGeometry relative="1" as="geometry">
            <mxPoint x="-125" y="84.5" as="sourcePoint" />
            <mxPoint x="40" y="85" as="targetPoint" />
          </mxGeometry>
        </mxCell>
        <mxCell id="eMg0Yvc5_CJ2FcT8Yvff-12" value="Envia dados informados" style="verticalAlign=bottom;endArrow=block;shadow=0;strokeWidth=1;exitX=0.54;exitY=0.28;exitDx=0;exitDy=0;exitPerimeter=0;" parent="1" source="3nuBFxr9cyL0pnOWT2aG-5" target="eMg0Yvc5_CJ2FcT8Yvff-2" edge="1">
          <mxGeometry relative="1" as="geometry">
            <mxPoint x="360" y="165" as="sourcePoint" />
            <mxPoint x="510" y="200" as="targetPoint" />
          </mxGeometry>
        </mxCell>
        <mxCell id="9aJRn0vA-EVMV_RJM1XB-1" value="frame" style="shape=umlFrame;whiteSpace=wrap;html=1;pointerEvents=0;" vertex="1" parent="1">
          <mxGeometry x="190" y="550" width="300" height="200" as="geometry" />
        </mxCell>
        <mxCell id="9aJRn0vA-EVMV_RJM1XB-5" value="" style="endArrow=open;endSize=12;dashed=1;html=1;exitX=-0.243;exitY=0.809;exitDx=0;exitDy=0;exitPerimeter=0;" edge="1" parent="1">
          <mxGeometry width="160" relative="1" as="geometry">
            <mxPoint x="692.5699999999999" y="180.43999999999994" as="sourcePoint" />
            <mxPoint x="520" y="180" as="targetPoint" />
            <Array as="points">
              <mxPoint x="630" y="180" />
            </Array>
          </mxGeometry>
        </mxCell>
        <mxCell id="9aJRn0vA-EVMV_RJM1XB-6" value="alt" style="shape=umlFrame;whiteSpace=wrap;html=1;pointerEvents=0;" vertex="1" parent="1">
          <mxGeometry x="20" y="220" width="820" height="210" as="geometry" />
        </mxCell>
        <mxCell id="9aJRn0vA-EVMV_RJM1XB-8" value="" style="endArrow=none;dashed=1;html=1;rounded=0;entryX=-0.003;entryY=0.524;entryDx=0;entryDy=0;entryPerimeter=0;exitX=0.998;exitY=0.524;exitDx=0;exitDy=0;exitPerimeter=0;" edge="1" parent="1" source="9aJRn0vA-EVMV_RJM1XB-6" target="9aJRn0vA-EVMV_RJM1XB-6">
          <mxGeometry width="50" height="50" relative="1" as="geometry">
            <mxPoint x="750" y="330" as="sourcePoint" />
            <mxPoint x="450" y="220" as="targetPoint" />
            <Array as="points" />
          </mxGeometry>
        </mxCell>
        <mxCell id="9aJRn0vA-EVMV_RJM1XB-10" value="[Login bem sucedido]" style="text;html=1;strokeColor=none;fillColor=none;align=center;verticalAlign=middle;whiteSpace=wrap;rounded=0;" vertex="1" parent="1">
          <mxGeometry x="170" y="270" width="130" height="30" as="geometry" />
        </mxCell>
        <mxCell id="9aJRn0vA-EVMV_RJM1XB-11" value="[Login mal sucedido]" style="text;html=1;strokeColor=none;fillColor=none;align=center;verticalAlign=middle;whiteSpace=wrap;rounded=0;" vertex="1" parent="1">
          <mxGeometry x="170" y="370" width="130" height="30" as="geometry" />
        </mxCell>
        <mxCell id="9aJRn0vA-EVMV_RJM1XB-12" value="" style="points=[];perimeter=orthogonalPerimeter;rounded=0;shadow=0;strokeWidth=1;" vertex="1" parent="1">
          <mxGeometry x="695" y="260" width="10" height="40" as="geometry" />
        </mxCell>
        <mxCell id="9aJRn0vA-EVMV_RJM1XB-15" style="edgeStyle=orthogonalEdgeStyle;rounded=0;orthogonalLoop=1;jettySize=auto;html=1;" edge="1" parent="1" source="9aJRn0vA-EVMV_RJM1XB-12" target="9aJRn0vA-EVMV_RJM1XB-12">
          <mxGeometry relative="1" as="geometry" />
        </mxCell>
        <mxCell id="9aJRn0vA-EVMV_RJM1XB-16" value="" style="points=[];perimeter=orthogonalPerimeter;rounded=0;shadow=0;strokeWidth=1;" vertex="1" parent="1">
          <mxGeometry x="695" y="365" width="10" height="40" as="geometry" />
        </mxCell>
        <mxCell id="9aJRn0vA-EVMV_RJM1XB-17" style="edgeStyle=orthogonalEdgeStyle;rounded=0;orthogonalLoop=1;jettySize=auto;html=1;" edge="1" parent="1" source="9aJRn0vA-EVMV_RJM1XB-16" target="9aJRn0vA-EVMV_RJM1XB-16">
          <mxGeometry relative="1" as="geometry" />
        </mxCell>
        <mxCell id="9aJRn0vA-EVMV_RJM1XB-19" value="" style="endArrow=open;endSize=12;dashed=1;html=1;" edge="1" parent="1">
          <mxGeometry width="160" relative="1" as="geometry">
            <mxPoint x="510" y="285" as="sourcePoint" />
            <mxPoint x="350" y="285" as="targetPoint" />
            <Array as="points" />
          </mxGeometry>
        </mxCell>
        <mxCell id="9aJRn0vA-EVMV_RJM1XB-20" value="Login Efetuado" style="text;html=1;strokeColor=none;fillColor=none;align=center;verticalAlign=middle;whiteSpace=wrap;rounded=0;" vertex="1" parent="1">
          <mxGeometry x="360" y="255" width="130" height="30" as="geometry" />
        </mxCell>
        <mxCell id="9aJRn0vA-EVMV_RJM1XB-23" value="" style="points=[];perimeter=orthogonalPerimeter;rounded=0;shadow=0;strokeWidth=1;" vertex="1" parent="1">
          <mxGeometry x="515" y="265" width="10" height="40" as="geometry" />
        </mxCell>
        <mxCell id="9aJRn0vA-EVMV_RJM1XB-25" value="" style="endArrow=open;endSize=12;dashed=1;html=1;exitX=-0.243;exitY=0.809;exitDx=0;exitDy=0;exitPerimeter=0;" edge="1" parent="1">
          <mxGeometry width="160" relative="1" as="geometry">
            <mxPoint x="694.9999999999999" y="284.43999999999994" as="sourcePoint" />
            <mxPoint x="522.43" y="284" as="targetPoint" />
            <Array as="points">
              <mxPoint x="632.43" y="284" />
            </Array>
          </mxGeometry>
        </mxCell>
        <mxCell id="9aJRn0vA-EVMV_RJM1XB-26" value="Dados encontrados" style="text;html=1;strokeColor=none;fillColor=none;align=center;verticalAlign=middle;whiteSpace=wrap;rounded=0;" vertex="1" parent="1">
          <mxGeometry x="550" y="255" width="130" height="30" as="geometry" />
        </mxCell>
        <mxCell id="9aJRn0vA-EVMV_RJM1XB-27" value="" style="endArrow=open;endSize=12;dashed=1;html=1;exitX=-0.243;exitY=0.809;exitDx=0;exitDy=0;exitPerimeter=0;" edge="1" parent="1">
          <mxGeometry width="160" relative="1" as="geometry">
            <mxPoint x="694.9999999999999" y="384.93999999999994" as="sourcePoint" />
            <mxPoint x="522.43" y="384.5" as="targetPoint" />
            <Array as="points">
              <mxPoint x="632.43" y="384.5" />
            </Array>
          </mxGeometry>
        </mxCell>
        <mxCell id="9aJRn0vA-EVMV_RJM1XB-29" value="UsuÃ¡rio/Senha InvÃ¡lida" style="text;html=1;strokeColor=none;fillColor=none;align=center;verticalAlign=middle;whiteSpace=wrap;rounded=0;" vertex="1" parent="1">
          <mxGeometry x="380" y="360" width="130" height="30" as="geometry" />
        </mxCell>
        <mxCell id="9aJRn0vA-EVMV_RJM1XB-30" value="" style="points=[];perimeter=orthogonalPerimeter;rounded=0;shadow=0;strokeWidth=1;" vertex="1" parent="1">
          <mxGeometry x="345" y="365" width="10" height="40" as="geometry" />
        </mxCell>
        <mxCell id="9aJRn0vA-EVMV_RJM1XB-31" value="Dados nÃ£o encontrados" style="text;html=1;strokeColor=none;fillColor=none;align=center;verticalAlign=middle;whiteSpace=wrap;rounded=0;" vertex="1" parent="1">
          <mxGeometry x="550" y="360" width="130" height="30" as="geometry" />
        </mxCell>
        <mxCell id="9aJRn0vA-EVMV_RJM1XB-32" value="" style="endArrow=open;endSize=12;dashed=1;html=1;exitX=-0.243;exitY=0.809;exitDx=0;exitDy=0;exitPerimeter=0;entryX=0.8;entryY=0.475;entryDx=0;entryDy=0;entryPerimeter=0;" edge="1" parent="1" target="9aJRn0vA-EVMV_RJM1XB-30">
          <mxGeometry width="160" relative="1" as="geometry">
            <mxPoint x="515" y="384.93999999999994" as="sourcePoint" />
            <mxPoint x="360" y="385" as="targetPoint" />
            <Array as="points">
              <mxPoint x="452.43" y="384.5" />
            </Array>
          </mxGeometry>
        </mxCell>
      </root>
    </mxGraphModel>
  </diagram>
</mxfile>
